<svg xmlns="http://www.w3.org/2000/svg" viewBox="0 0 24 24" role="img" aria-label="GitHub">
  <circle cx="12" cy="12" r="10" fill="currentColor" opacity=".14"/>
  <path fill="currentColor" d="M12 3.5a8.5 8.5 0 0 0-2.69 16.56c.42.08.58-.18.58-.41v-1.5c-2.36.52-2.85-1.01-2.85-1.01-.38-.98-.93-1.24-.93-1.24-.76-.52.06-.51.06-.51.84.06 1.28.86 1.28.86.75 1.28 1.98.91 2.46.7.08-.55.29-.91.53-1.12-1.88-.21-3.86-.94-3.86-4.2 0-.93.33-1.69.87-2.29-.09-.21-.38-1.07.08-2.24 0 0 .71-.23 2.33.88a8.1 8.1 0 0 1 2.12-.29c.72 0 1.44.1 2.12.29 1.62-1.11 2.33-.88 2.33-.88.46 1.17.17 2.03.08 2.24.54.6.87 1.36.87 2.29 0 3.27-1.99 3.98-3.88 4.19.3.26.57.78.57 1.58v2.34c0 .23.16.5.58.41A8.5 8.5 0 0 0 12 3.5z"/>
</svg>
