<svg xmlns="http://www.w3.org/2000/svg" viewBox="0 0 24 24" role="img" aria-label="Hugging Face">
  <circle cx="12" cy="12" r="10" fill="currentColor" opacity=".14"/>
  <path fill="currentColor" d="M12 6.6c-3.07 0-5.55 2.49-5.55 5.56 0 3.06 2.48 5.54 5.55 5.54s5.55-2.48 5.55-5.54c0-3.07-2.48-5.56-5.55-5.56zm-2.1 5.3a1.05 1.05 0 1 1 0-2.1 1.05 1.05 0 0 1 0 2.1zm4.2 0a1.05 1.05 0 1 1 0-2.1 1.05 1.05 0 0 1 0 2.1zm-2.1 4.1c-1.4 0-2.62-.76-3.27-1.89l1.1-.55c.42.8 1.26 1.34 2.17 1.34.9 0 1.75-.54 2.17-1.34l1.1.55A3.7 3.7 0 0 1 12 16z"/>
</svg>
